<?xml version="1.0" standalone="no"?>
<!DOCTYPE svg PUBLIC "-//W3C//DTD SVG 20010904//EN"
 "http://www.w3.org/TR/2001/REC-SVG-20010904/DTD/svg10.dtd">
<svg version="1.0" xmlns="http://www.w3.org/2000/svg"
 width="32.000000pt" height="32.000000pt" viewBox="0 0 256.000000 256.000000"
 preserveAspectRatio="xMidYMid meet">

<g transform="translate(0.000000,256.000000) scale(0.100000,-0.100000)"
fill="#43A047" stroke="none">
<path d="M1121 2545 c-259 -40 -456 -125 -649 -281 -349 -280 -527 -758 -448
-1198 154 -853 1074 -1312 1840 -918 171 88 314 208 430 362 171 227 260 490
260 770 0 618 -446 1148 -1054 1254 -136 24 -269 28 -379 11z m136 -269 l28
-25 23 22 c27 26 90 29 117 7 27 -22 44 -71 38 -105 -4 -19 -30 -53 -74 -97
-99 -97 -94 -97 -172 -32 -36 30 -75 69 -86 88 -37 59 -22 123 34 154 32 18
62 14 92 -12z m439 -319 c12 -7 42 -38 68 -69 36 -45 58 -61 101 -77 31 -12
60 -21 65 -21 17 0 40 -32 40 -56 0 -33 -35 -99 -62 -118 -14 -10 -44 -16 -80
-16 -76 0 -88 -13 -88 -98 -1 -86 -22 -202 -50 -272 -20 -49 -21 -66 -15 -154
5 -76 11 -105 26 -124 40 -52 14 -92 -59 -92 -69 0 -85 17 -123 124 l-33 94
-48 5 c-26 3 -85 18 -130 32 -45 14 -101 29 -125 32 -41 5 -46 3 -96 -44 -29
-28 -66 -57 -83 -66 -16 -8 -38 -24 -48 -36 -17 -19 -18 -25 -6 -60 19 -59 3
-81 -60 -81 -61 0 -81 23 -100 109 -12 55 -11 63 6 87 61 86 63 95 42 196 -10
49 -9 65 4 108 l16 50 -39 0 c-91 0 -189 76 -215 167 -13 44 -13 57 -2 80 22
47 45 41 71 -19 31 -71 81 -113 151 -129 48 -10 65 -10 123 6 118 30 139 32
260 28 109 -4 122 -3 163 19 25 13 60 43 78 68 l34 44 -31 8 c-17 5 -39 20
-48 35 -17 25 -16 27 28 110 24 47 56 98 71 114 24 27 31 29 100 29 40 -1 83
-6 94 -13z m274 -1304 l0 -86 33 37 c28 33 37 37 69 34 l38 -3 -39 -46 -39
-45 39 -51 c21 -29 39 -57 39 -62 0 -18 -59 -12 -77 7 -10 9 -28 31 -40 47
l-22 30 -1 -41 c0 -35 -4 -42 -23 -46 -46 -9 -47 -4 -47 151 0 81 3 151 7 154
3 4 19 7 35 7 l28 0 0 -87z m-1279 38 c31 -31 39 -83 19 -122 -15 -26 -62 -49
-105 -49 -35 0 -35 0 -35 -44 0 -38 -3 -44 -23 -48 -46 -9 -47 -4 -47 148 l0
144 81 0 c76 0 82 -2 110 -29z m654 4 c28 -27 33 -75 10 -98 -12 -13 -12 -17
5 -32 24 -22 26 -72 5 -102 -19 -27 -81 -45 -144 -42 -75 4 -71 -4 -71 155 l0
144 85 0 c78 0 88 -2 110 -25z m-285 -25 c0 -25 4 -30 25 -30 21 0 25 -5 25
-30 0 -25 -4 -30 -25 -30 -23 0 -25 -4 -25 -45 0 -29 5 -45 13 -46 6 -1 19 -2
27 -3 10 -1 15 -12 15 -31 0 -27 -3 -30 -37 -33 -58 -5 -88 30 -88 103 0 42
-3 55 -15 55 -10 0 -15 10 -15 30 0 20 5 30 15 30 10 0 15 10 15 30 0 28 3 30
35 30 32 0 35 -2 35 -30z m-170 -35 c33 -17 60 -61 60 -100 0 -25 -1 -25 -76
-25 -67 0 -75 -2 -64 -15 15 -18 61 -20 78 -3 10 10 17 7 34 -10 21 -20 21
-23 6 -38 -24 -24 -98 -30 -136 -10 -34 17 -62 61 -62 96 0 38 30 88 63 104
40 20 61 20 97 1z m708 -30 c38 -41 42 -84 12 -133 -44 -72 -156 -68 -195 8
-63 122 89 227 183 125z m207 31 c36 -15 75 -67 75 -99 0 -34 -32 -88 -61
-102 -49 -26 -97 -19 -135 19 -28 28 -34 41 -34 78 0 51 21 85 64 104 40 17
49 17 91 0z"/>
<path d="M570 619 c0 -33 3 -40 16 -35 9 3 24 6 34 6 23 0 33 26 20 51 -7 12
-21 19 -40 19 -28 0 -30 -2 -30 -41z"/>
<path d="M1228 635 c3 -20 10 -25 32 -25 15 0 30 6 32 13 9 24 -4 37 -36 37
-30 0 -33 -2 -28 -25z"/>
<path d="M1228 520 c-4 -29 -3 -30 33 -30 25 0 39 5 43 16 9 23 -12 44 -44 44
-23 0 -28 -5 -32 -30z"/>
<path d="M810 576 c-11 -14 -7 -16 30 -16 29 0 40 4 38 13 -7 18 -53 20 -68 3z"/>
<path d="M1479 556 c-23 -49 22 -90 62 -57 20 16 22 23 14 47 -14 40 -60 46
-76 10z"/>
<path d="M1732 568 c-23 -23 -4 -88 27 -88 24 0 42 28 39 60 -2 29 -7 36 -28
38 -14 2 -31 -3 -38 -10z"/>
</g>
</svg>
